<svg width="471.6" height="219.77560318293098" viewBox="0 0 350.00000000000006 163.10742390590724" xmlns="http://www.w3.org/2000/svg" class="css-1j8o68f"><defs id="SvgjsDefs2314"></defs><g id="SvgjsG2315" featurekey="monogramFeature-0" transform="matrix(2.08871977857618,0,0,2.08871977857618,105.00699812337598,-13.553395867927016)" fill="#4f46e5"><path d="M33.3 60 c-6 0 -11.28 -2.22 -15.12 -6.06 c-3.84 3.18 -9 5.52 -12 5.52 c-2.7 0 -4.56 -1.2 -5.58 -3.6 c-3.36 -8.34 8.16 -29.58 13.68 -34.86 c4.32 -4.32 10.26 -3.78 13.62 0.18 c2.16 2.64 4.02 5.1 5.64 7.32 c1.92 -2.82 3.96 -5.4 5.58 -7.32 c3.36 -3.96 9.3 -4.5 13.62 -0.18 c5.52 5.28 17.04 26.52 13.68 34.86 c-0.9 2.22 -2.82 3.6 -5.64 3.6 c-2.94 0 -8.46 -2.16 -12.24 -5.46 c-4.08 3.9 -9.42 6 -15.24 6 z M21.18 50.88 l-0.12 0.12 c3.06 3.06 7.44 4.86 12.24 4.86 s9 -1.74 12.36 -4.86 c-1.86 -2.46 -3.24 -5.28 -3.24 -8.34 c0 -7.74 11.64 -7.44 11.64 0 c0 3.06 -0.96 5.64 -2.82 8.22 c3.36 2.88 7.98 4.44 9.54 4.44 c1.14 0 1.56 -0.36 1.8 -1.02 c1.02 -2.46 -0.3 -8.16 -3.42 -15.18 c-2.76 -6.3 -6.54 -12.42 -9.3 -15.18 c-2.58 -2.46 -5.7 -2.28 -7.56 -0.12 c-1.74 2.16 -4.2 5.22 -6.3 8.4 c2.46 4.02 3.66 7.14 3.66 9.42 c0 8.58 -12.3 8.4 -12.3 0 c0 -2.28 1.26 -5.4 3.72 -9.42 c-1.74 -2.58 -3.78 -5.34 -6.36 -8.4 c-1.86 -2.16 -4.98 -2.34 -7.56 0.12 c-2.76 2.76 -6.54 8.88 -9.3 15.18 c-3.12 7.02 -4.38 12.72 -3.42 15.18 c0.24 0.66 0.66 1.02 1.8 1.02 c1.74 0 6.12 -1.8 9.42 -4.62 c-0.6 -0.9 -2.64 -3.9 -2.64 -8.04 c0 -3.96 2.82 -6.06 5.52 -6.06 c2.88 0 5.88 2.28 5.88 6.06 c0 3.66 -1.86 6.48 -3.24 8.22 z M48.18 41.1 c-0.66 0 -1.62 0.18 -1.62 1.56 c0 1.5 0.6 3.18 1.8 5.04 c1.02 -1.62 1.56 -3.3 1.56 -5.04 c0 -1.5 -1.56 -1.56 -1.74 -1.56 z M18.54 40.739999999999995 c-1.14 0 -1.38 1.02 -1.38 1.92 c0 2.1 0.72 3.72 1.38 4.86 c0.9 -1.38 1.74 -2.94 1.74 -4.86 c0 -1.5 -1.08 -1.92 -1.74 -1.92 z M33.54 36.18 c-1.74 3.12 -2.04 4.74 -2.04 5.46 c0 2.34 2.4 2.76 3.42 1.74 c0.42 -0.42 0.6 -0.96 0.6 -1.74 s-0.3 -2.34 -1.98 -5.46 z"></path></g><g id="SvgjsG2316" featurekey="nameFeature-0" transform="matrix(0.8632937130135536,0,0,0.8632937130135536,-1.5539288480846047,127.9886362203606)" fill="#4f46e5"><path d="M29.88 19.48 l-10.2 12.2 l-10.12 -12.2 l0 20.52 l-4.28 0 l0 -25.64 l-3.48 -4.2 l5.64 0 l12.2 14.64 l12.36 -14.64 l5.64 0 l-3.48 4.2 l0 25.64 l-4.28 0 l0 -20.52 z M60.784 40.68 q-4.2 0 -7.22 -1.46 t-4.6 -4.22 t-1.58 -6.6 l0 -18.24 l4.32 0 l0 18.24 q0 3.84 2.36 5.88 t6.72 2.04 t6.72 -2.04 t2.36 -5.88 l0 -18.24 l4.32 0 l0 18.24 q0 3.84 -1.58 6.6 t-4.6 4.22 t-7.22 1.46 z M112.00800000000001 19.48 l-10.2 12.2 l-10.12 -12.2 l0 20.52 l-4.28 0 l0 -25.64 l-3.48 -4.2 l5.64 0 l12.2 14.64 l12.36 -14.64 l5.64 0 l-3.48 4.2 l0 25.64 l-4.28 0 l0 -20.52 z M134.23200000000003 14.559999999999999 l0 9.12 q1.24 -0.72 2.8 -1 q1.16 -0.2 2.88 -0.2 l5.12 0 q2.08 0 3.26 -1.04 t1.18 -3.08 q0 -3.8 -4.44 -3.8 l-10.8 0 z M134.23200000000003 28.119999999999997 l0 7.52 l11.24 0 q1.32 0 2.52 -0.48 q1.32 -0.48 2.08 -1.4 q0.88 -1.08 0.88 -2.48 q0 -2.4 -1.88 -3.48 q-1.48 -0.88 -4.04 -0.88 l-5.12 0 q-3.44 0 -5.68 1.2 z M155.27200000000002 31.84 q0 2.8 -1.56 4.76 q-1.36 1.72 -3.84 2.6 q-2.2 0.8 -4.84 0.8 l-15.12 0 l0 -29.84 l15.12 0 q2.56 0 4.54 0.96 t3.1 2.76 q1.16 1.88 1.16 4.44 q0 1.96 -0.7 3.5 t-1.98 2.38 q1.72 0.8 2.84 2.64 q1.28 2.12 1.28 5 z M175.73600000000002 13.32 l-1.64 -3.68 l4.8 0 l14.36 30.36 l-4.88 0 l-1.96 -4.36 l-9.08 0 q-2.56 0 -4.6 0.48 q-1.8 0.44 -3 1.16 q-1.08 0.64 -1.44 1.32 l-0.76 1.4 l-4.72 0 z M178.93600000000004 31.240000000000002 l5.52 0 l-6.52 -12.6 l-6.6 14.28 q0.88 -0.76 2.68 -1.2 q2.04 -0.48 4.92 -0.48 z M207.08000000000004 40 l-4.28 0 l0 -29.84 l4.28 0 l0 29.84 z M244.64800000000002 22.92 l5.28 0 q4.4 0 4.4 -4.24 q0 -2.2 -1.1 -3.18 t-3.3 -0.98 l-10.96 0 l0 9.6 q1.24 -0.72 2.8 -1 q1.16 -0.2 2.88 -0.2 z M238.96800000000002 40 l-4.36 0 l0 -29.84 l15.32 0 q2.64 0 4.6 1.02 t3.04 2.94 t1.08 4.54 t-1.08 4.58 t-3.06 3.02 t-4.58 1.06 l-5.28 0 q-3.44 0 -5.68 1.2 l0 11.48 z M281.992 40.68 q-4.2 0 -7.22 -1.46 t-4.6 -4.22 t-1.58 -6.6 l0 -18.24 l4.32 0 l0 18.24 q0 3.84 2.36 5.88 t6.72 2.04 t6.72 -2.04 t2.36 -5.88 l0 -18.24 l4.32 0 l0 18.24 q0 3.84 -1.58 6.6 t-4.6 4.22 t-7.22 1.46 z M308.61600000000004 14.36 l-3.48 -4.2 l5.64 0 l19.16 22.8 l0 -22.8 l4.4 0 l0 29.84 l-4.32 0 l-17.12 -20.52 l0 20.52 l-4.28 0 l0 -25.64 z M359.4800000000001 28.04 l-8.04 11.96 l-4.36 0 l0 -29.84 l4.36 0 l0 22.28 l15.16 -22.28 l5.24 0 l-9.8 14.04 l5.36 8.04 q1.28 1.92 2.52 2.72 q1 0.64 2.12 0.64 l1.24 -0.04 l0 4.44 l-0.8 0 q-2 0.04 -2.92 -0.16 q-1.48 -0.24 -2.72 -1.2 q-1.4 -1.12 -2.84 -3.36 z M407.2240000000001 30.92 q0 2.92 -1.76 5.2 q-1.72 2.16 -4.74 3.36 t-6.82 1.2 q-3.48 0 -6.76 -1.62 t-5.52 -4.5 l3.12 -2.92 q3.88 4.68 9.16 4.68 q2.32 0 4.24 -0.56 q2.12 -0.64 3.28 -1.8 q1.32 -1.28 1.32 -3.04 q0 -2.12 -1.32 -3.2 q-1.12 -0.92 -3.32 -1.2 q-1.28 -0.16 -4.2 -0.16 q-5.36 0 -8.18 -1.96 t-2.82 -5.76 q0 -2.4 1.42 -4.56 t3.9 -3.44 q2.56 -1.36 5.68 -1.36 q3.52 0 6.36 1.08 q3.04 1.16 5.64 3.64 l-2.72 3.2 q-2.44 -1.96 -4.44 -2.74 t-4.84 -0.78 q-1.64 0 -3.06 0.68 t-2.26 1.82 t-0.84 2.42 q0 3.44 6.36 3.44 q5.08 0 8.04 1.04 q2.8 1 4 3.04 q1.08 1.8 1.08 4.8 z"></path></g></svg>
